<svg data-v-fde0c5aa="" xmlns="http://www.w3.org/2000/svg" viewBox="0 0 300 300" class="iconLeft"><!----><defs data-v-fde0c5aa=""><!----></defs><rect data-v-fde0c5aa="" fill="#EAEDF9" x="0" y="0" width="300px" height="300px" class="logo-background-square"></rect><defs data-v-fde0c5aa=""><!----></defs><g data-v-fde0c5aa="" id="ee56d8c5-fa2f-4b44-99a0-890d5e427fd3" fill="#202A4F" transform="matrix(3.2190375328063965,0,0,3.2190375328063965,90.51767057325009,126.45274080376156)"><path d="M1.05 12.29L1.05 2.69L5.70 2.69Q7.20 2.69 7.98 3.49Q8.76 4.30 8.76 5.68L8.76 5.68Q8.76 7.07 7.95 7.90Q7.13 8.72 5.66 8.72L5.66 8.72L2.60 8.72L2.60 12.29L1.05 12.29ZM2.60 7.39L5.60 7.39Q6.34 7.39 6.77 6.94Q7.20 6.48 7.20 5.68L7.20 5.68Q7.20 4.89 6.79 4.45Q6.38 4.02 5.60 4.02L5.60 4.02L2.60 4.02L2.60 7.39ZM13.34 12.46Q11.59 12.46 10.72 11.52Q9.84 10.57 9.84 8.61L9.84 8.61Q9.84 6.65 10.72 5.71Q11.59 4.76 13.34 4.76L13.34 4.76Q15.09 4.76 15.97 5.71Q16.86 6.65 16.86 8.61L16.86 8.61Q16.86 10.57 15.97 11.52Q15.09 12.46 13.34 12.46L13.34 12.46ZM13.34 11.27Q14.41 11.27 14.89 10.65Q15.37 10.02 15.37 8.68L15.37 8.68L15.37 8.54Q15.37 7.20 14.89 6.57Q14.41 5.95 13.34 5.95L13.34 5.95Q12.29 5.95 11.81 6.57Q11.33 7.20 11.33 8.54L11.33 8.54L11.33 8.68Q11.33 10.02 11.81 10.65Q12.29 11.27 13.34 11.27L13.34 11.27ZM18.31 12.29L18.31 4.93L19.47 4.93L19.61 6.06L19.70 6.06Q20.20 4.76 21.39 4.76L21.39 4.76Q21.64 4.76 21.83 4.81Q22.02 4.86 22.08 4.87L22.08 4.87L22.08 6.24L21.56 6.24Q20.73 6.24 20.24 6.72Q19.75 7.20 19.75 8.18L19.75 8.18L19.75 12.29L18.31 12.29ZM24.98 12.45Q24.14 12.45 23.76 11.96Q23.38 11.48 23.38 10.77L23.38 10.77L23.38 6.12L22.48 6.12L22.48 4.93L23.39 4.93L23.67 2.87L24.82 2.87L24.82 4.93L26.07 4.93L26.07 6.12L24.82 6.12L24.82 10.63Q24.82 11.27 25.42 11.27L25.42 11.27L26.07 11.27L26.07 12.25Q25.89 12.33 25.57 12.39Q25.26 12.45 24.98 12.45L24.98 12.45ZM30.39 12.46Q28.64 12.46 27.77 11.52Q26.89 10.57 26.89 8.61L26.89 8.61Q26.89 6.65 27.77 5.71Q28.64 4.76 30.39 4.76L30.39 4.76Q32.14 4.76 33.03 5.71Q33.91 6.65 33.91 8.61L33.91 8.61Q33.91 10.57 33.03 11.52Q32.14 12.46 30.39 12.46L30.39 12.46ZM30.39 11.27Q31.46 11.27 31.94 10.65Q32.42 10.02 32.42 8.68L32.42 8.68L32.42 8.54Q32.42 7.20 31.94 6.57Q31.46 5.95 30.39 5.95L30.39 5.95Q29.34 5.95 28.86 6.57Q28.38 7.20 28.38 8.54L28.38 8.54L28.38 8.68Q28.38 10.02 28.86 10.65Q29.34 11.27 30.39 11.27L30.39 11.27ZM35.36 12.29L35.36 2.17L36.81 2.17L36.81 12.29L35.36 12.29ZM40.61 12.46Q39.70 12.46 38.97 12.01Q38.23 11.56 38.23 10.39L38.23 10.39Q38.23 8.97 39.47 8.43Q40.70 7.88 42.99 7.88L42.99 7.88L42.99 7.15Q42.99 6.55 42.68 6.24Q42.36 5.92 41.51 5.92L41.51 5.92Q40.68 5.92 40.34 6.22Q40.00 6.51 40.00 6.93L40.00 6.93L40.00 7.11L38.60 7.11Q38.58 7.03 38.58 6.80L38.58 6.80Q38.58 5.84 39.40 5.30Q40.21 4.76 41.57 4.76L41.57 4.76Q42.99 4.76 43.71 5.35Q44.44 5.94 44.44 7.01L44.44 7.01L44.44 10.78Q44.44 11.03 44.58 11.15Q44.72 11.27 44.93 11.27L44.93 11.27L45.43 11.27L45.43 12.24Q45.07 12.42 44.44 12.42L44.44 12.42Q43.93 12.42 43.59 12.14Q43.25 11.87 43.13 11.40L43.13 11.40L43.04 11.40Q42.64 11.90 42.03 12.18Q41.43 12.46 40.61 12.46L40.61 12.46ZM41.03 11.28Q41.86 11.28 42.43 10.79Q42.99 10.29 42.99 9.42L42.99 9.42L42.99 8.97Q41.40 8.97 40.56 9.25Q39.72 9.52 39.72 10.28L39.72 10.28Q39.72 10.79 40.05 11.04Q40.38 11.28 41.03 11.28L41.03 11.28ZM46.49 12.29L46.49 4.93L47.66 4.93L47.80 5.91L47.89 5.91Q48.29 5.35 48.91 5.05Q49.53 4.76 50.32 4.76L50.32 4.76Q52.65 4.76 52.65 7.29L52.65 7.29L52.65 12.29L51.21 12.29L51.21 7.48Q51.21 6.65 50.84 6.32Q50.47 5.99 49.76 5.99L49.76 5.99Q49.27 5.99 48.85 6.24Q48.43 6.48 48.18 6.93Q47.94 7.38 47.94 7.97L47.94 7.97L47.94 12.29L46.49 12.29Z"></path></g><defs data-v-fde0c5aa=""><linearGradient data-v-fde0c5aa="" gradientTransform="rotate(25)" id="e152c34e-0f17-4cae-b539-1741ef41f35b" x1="0%" y1="0%" x2="100%" y2="0%"><stop data-v-fde0c5aa="" offset="0%" stop-color="#395ECA" stop-opacity="1"></stop><stop data-v-fde0c5aa="" offset="100%" stop-color="#848BD8" stop-opacity="1"></stop></linearGradient></defs><g data-v-fde0c5aa="" id="6321b14c-e99b-405d-92fb-bcafe3b1e769" stroke="none" fill="url(#e152c34e-0f17-4cae-b539-1741ef41f35b)" transform="matrix(1.552682638168335,0,0,1.552682638168335,35.6059083786494,125.15707850283604)"><path d="M2.83 18.247l26.34-9.124L2.83 0zM29.17 32V13.753L2.83 22.877z"></path></g><!----></svg>
